# xmcd
#
# Track frame offsets:
# 150
# 12627
# 26541
# 36557
# 48752
# 61865
# 74952
# 89016
# 103093
# 118454
# 132232
# 148430
# 162304
# 173129
# 185143
# 199770
# 213566
# 227232
# 242940
# 256492
#
# Disc length: 3599 seconds
#
#
# Revision: 0
# Processed by: cddbd v1.5.2PL0 Copyright (c) Steve Scherf et al.
# Submitted via: FreeRIP 2.942 
#
DISCID=480e0d14
DTITLE=Teodoro e Sampaio - O Bailao de Teodoro e Sampaio
DYEAR=1900
DGENRE=
TTITLE0=Poe e Tira - Teodoro e Sampaio
TTITLE1=Bão Demais da Conta - Teodoro e Sampaio
TTITLE2=Quem Tem ... Tem Medo - Teodoro e Sampaio
TTITLE3=Aconteceu Comigo - Teodoro e Sampaio
TTITLE4=Fogo no Facho - Teodoro e Sampaio
TTITLE5=Na Mira Do Chifrudo - Teodoro e Sampaio
TTITLE6=Meu Amor Brigou Comigo - Teodoro e Sampaio
TTITLE7=Mulher Boa - Teodoro e Sampaio
TTITLE8=Louco Por Mulher - Teodoro e Sampaio
TTITLE9=Sonanbulismo - Teodoro e Sampaio
TTITLE10=Toco da Saia - Teodoro e Sampaio
TTITLE11=Roela do Eno - Teodoro e Sampaio
TTITLE12=Namorar e Chupar Cana - Teodoro e Sampaio
TTITLE13=Amor, Amasso e Paixao - Teodoro e Sampaio
TTITLE14=O Certinho e o Safado - Teodoro e Sampaio
TTITLE15=Mulher Chorona - Teodoro e Sampaio
TTITLE16=Ricardao - Teodoro e Sampaio
TTITLE17=Ele Mexe Comigo - Teodoro e Sampaio
TTITLE18=Pe de Pano - Teodoro e Sampaio
TTITLE19=Cuidado Com o Casamento - Teodoro e Sampaio
EXTD=
EXTT0=
EXTT1=
EXTT2=
EXTT3=
EXTT4=
EXTT5=
EXTT6=
EXTT7=
EXTT8=
EXTT9=
EXTT10=
EXTT11=
EXTT12=
EXTT13=
EXTT14=
EXTT15=
EXTT16=
EXTT17=
EXTT18=
EXTT19=
PLAYORDER=
